<svg xmlns="http://www.w3.org/2000/svg" viewBox="0 0 320 220" fill="none">
  <defs>
    <linearGradient id="panel" x1="0" y1="0" x2="1" y2="1">
      <stop stop-color="#173B78" stop-opacity=".96"/>
      <stop offset="1" stop-color="#0A1D3D" stop-opacity=".96"/>
    </linearGradient>
    <filter id="glow" x="-40%" y="-40%" width="180%" height="180%">
      <feGaussianBlur stdDeviation="5" result="b"/><feMerge><feMergeNode in="b"/><feMergeNode in="SourceGraphic"/></feMerge>
    </filter>
  </defs>
  <rect x="24" y="28" width="218" height="142" rx="16" fill="url(#panel)" stroke="#4DA3FF" stroke-opacity=".34"/>
  <rect x="24" y="28" width="218" height="24" rx="16" fill="#1E63E9" fill-opacity=".12"/>
  <circle cx="42" cy="40" r="3" fill="#F2B84B"/>
  <circle cx="53" cy="40" r="3" fill="#4DA3FF"/>
  <circle cx="64" cy="40" r="3" fill="#8A8F98"/>
  <rect x="42" y="66" width="50" height="84" rx="8" fill="#0D2B59" stroke="#4DA3FF" stroke-opacity=".22"/>
  <rect x="104" y="66" width="120" height="28" rx="7" fill="#1E63E9" fill-opacity=".12"/>
  <rect x="104" y="104" width="54" height="46" rx="8" fill="#0D2B59" stroke="#4DA3FF" stroke-opacity=".18"/>
  <rect x="168" y="104" width="56" height="46" rx="8" fill="#0D2B59" stroke="#4DA3FF" stroke-opacity=".18"/>
  <path d="M113 80h48M113 86h33M51 78h30M51 88h22M51 99h26M51 110h18" stroke="#8DC4FF" stroke-width="3" stroke-linecap="round" opacity=".7"/>
  <path d="M116 132l8-8 8 8 11-16" stroke="#F2B84B" stroke-width="3" stroke-linecap="round" stroke-linejoin="round"/>
  <rect x="198" y="117" width="14" height="22" rx="3" fill="#1E63E9" fill-opacity=".55"/>
  <rect x="177" y="125" width="14" height="14" rx="3" fill="#4DA3FF" fill-opacity=".36"/>
  <g transform="translate(205 74) rotate(6)" filter="url(#glow)">
    <rect x="0" y="0" width="88" height="122" rx="16" fill="#081C3B" stroke="#4DA3FF" stroke-opacity=".5"/>
    <rect x="8" y="14" width="72" height="20" rx="6" fill="#1E63E9" fill-opacity=".18"/>
    <circle cx="20" cy="24" r="5" fill="#F2B84B"/>
    <path d="M32 21h32M32 27h22" stroke="#8DC4FF" stroke-width="2.5" stroke-linecap="round"/>
    <rect x="10" y="45" width="68" height="34" rx="8" fill="#12356D"/>
    <path d="M18 69l12-9 11 5 15-13 14 8" stroke="#4DA3FF" stroke-width="3" stroke-linecap="round" stroke-linejoin="round"/>
    <rect x="10" y="89" width="30" height="19" rx="6" fill="#1E63E9" fill-opacity=".25"/>
    <rect x="48" y="89" width="30" height="19" rx="6" fill="#F2B84B" fill-opacity=".17"/>
  </g>
</svg>