<svg xmlns="http://www.w3.org/2000/svg" viewBox="0 0 1000 800" role="img" aria-labelledby="title desc">
<title id="title">Lotus connected technology platform</title>
<desc id="desc">A detailed desktop technology platform showing cloud APIs, applications, commerce, Lotus orchestration, data, users and secure infrastructure.</desc>
<defs>
  <linearGradient id="blue" x1="0" y1="0" x2="1" y2="1"><stop stop-color="#A7E3FF"/><stop offset=".45" stop-color="#48B3FF"/><stop offset="1" stop-color="#1768F2"/></linearGradient>
  <linearGradient id="glass" x1="0" y1="0" x2="1" y2="1"><stop stop-color="#184888" stop-opacity=".96"/><stop offset="1" stop-color="#071A38" stop-opacity=".94"/></linearGradient>
  <linearGradient id="surface" x1="0" y1="0" x2="0" y2="1"><stop stop-color="#12366B" stop-opacity=".92"/><stop offset="1" stop-color="#06162F" stop-opacity=".98"/></linearGradient>
  <linearGradient id="gold"><stop stop-color="#FFE4A3"/><stop offset="1" stop-color="#F2B84B"/></linearGradient>
  <linearGradient id="petalCenter" x1="0.15" y1="0.15" x2="0.9" y2="0.88"><stop offset="0" stop-color="#061A45"/><stop offset=".48" stop-color="#0B3FC6"/><stop offset="1" stop-color="#16C8FF"/></linearGradient>
  <linearGradient id="petalLeft" x1="0.12" y1="0.2" x2="0.95" y2="0.85"><stop offset="0" stop-color="#0A2C82"/><stop offset=".58" stop-color="#0C54F2"/><stop offset="1" stop-color="#11C4F4"/></linearGradient>
  <linearGradient id="petalRight" x1="0.05" y1="0.75" x2="0.95" y2="0.15"><stop offset="0" stop-color="#071D58"/><stop offset=".5" stop-color="#0B55F2"/><stop offset="1" stop-color="#21D0FF"/></linearGradient>
  <linearGradient id="petalBase" x1="0.08" y1="0.35" x2="0.92" y2="0.72"><stop offset="0" stop-color="#0A42D8"/><stop offset=".45" stop-color="#061A56"/><stop offset="1" stop-color="#0C61F4"/></linearGradient>
  <radialGradient id="scene"><stop stop-color="#1D67CC" stop-opacity=".34"/><stop offset=".5" stop-color="#123A75" stop-opacity=".1"/><stop offset="1" stop-color="#081B3A" stop-opacity="0"/></radialGradient>
  <radialGradient id="core"><stop stop-color="#2155A1"/><stop offset=".7" stop-color="#0C2854"/><stop offset="1" stop-color="#071A38"/></radialGradient>
  <filter id="shadow" x="-60%" y="-60%" width="220%" height="240%"><feDropShadow dx="0" dy="16" stdDeviation="15" flood-color="#020814" flood-opacity=".5"/></filter>
  <filter id="glow" x="-100%" y="-100%" width="300%" height="300%"><feDropShadow dx="0" dy="0" stdDeviation="8" flood-color="#4DA3FF" flood-opacity=".68"/></filter>
  <pattern id="grid" width="40" height="40" patternUnits="userSpaceOnUse"><path d="M40 0H0V40" fill="none" stroke="#6CC1FF" stroke-opacity=".025"/></pattern>
  <style>
    .label{fill:#C7EBFF;font-family:Arial,sans-serif;font-size:15px;font-weight:700;letter-spacing:2.6px}.small{fill:#8FCFFF;font-family:Arial,sans-serif;font-size:9px;font-weight:700;letter-spacing:1.2px}.micro{fill:#72B8EE;font-family:Arial,sans-serif;font-size:8px;letter-spacing:.9px}.trace{fill:none;stroke:#55B6FF;stroke-width:2;stroke-linecap:round;stroke-opacity:.28}.flow{fill:none;stroke:url(#blue);stroke-width:3;stroke-linecap:round;stroke-dasharray:7 11;animation:flow 5.5s linear infinite}.pulse{animation:pulse 4.2s ease-in-out infinite;transform-box:fill-box;transform-origin:center}.float{animation:float 6.4s ease-in-out infinite;transform-box:fill-box;transform-origin:center}.blink{animation:blink 2.2s ease-in-out infinite}.dash{animation:dash 5s linear infinite}.sweep{animation:sweep 5.8s ease-in-out infinite}.packet{animation:packet 4.6s linear infinite}@keyframes flow{to{stroke-dashoffset:-144}}@keyframes pulse{50%{transform:scale(1.015)}}@keyframes float{50%{transform:translateY(-5px)}}@keyframes blink{50%{opacity:.35}}@keyframes dash{to{stroke-dashoffset:-90}}@keyframes sweep{0%,16%{transform:translateX(-220px);opacity:0}35%,58%{opacity:.3}82%,100%{transform:translateX(760px);opacity:0}}@keyframes packet{0%{opacity:0;transform:translateX(0)}15%{opacity:1}85%{opacity:1}100%{opacity:0;transform:translateX(180px)}}@media(prefers-reduced-motion:reduce){*{animation:none!important}}
  </style>
</defs>
<rect width="1000" height="800" fill="url(#grid)"/><ellipse cx="500" cy="406" rx="475" ry="372" fill="url(#scene)"/>
<path d="M95 360C180 215 320 132 500 132C680 132 820 215 905 360" class="trace" opacity=".42"/>
<path d="M115 620C240 710 375 742 500 742C625 742 760 710 885 620" class="trace" opacity=".28"/>

<!-- Cloud + APIs -->
<g class="float" filter="url(#shadow)">
  <text class="label" x="417" y="30">CLOUD + APIs</text>
  <path d="M385 145h230c31 0 53-17 53-42 0-24-20-42-48-43-9-24-32-39-61-39-34 0-59 19-68 47-31 2-54 19-54 44 0 20 18 33 46 33z" fill="url(#glass)" stroke="#7CCEFF" stroke-opacity=".7"/>
  <circle cx="448" cy="101" r="6" fill="#4DA3FF"/><circle cx="480" cy="101" r="6" fill="#F2B84B"/><circle cx="512" cy="101" r="6" fill="#4DA3FF"/>
  <rect x="535" y="82" width="80" height="38" rx="8" fill="#071A38" stroke="#62BEFF" stroke-opacity=".48"/><path d="M551 94h47M551 103h34M551 112h42" stroke="#55B6FF" stroke-width="2" opacity=".7"/>
  <text class="micro" x="520" y="132">SERVICES · APIs · EVENTS</text>
</g>
<path class="flow" d="M500 147V170"/>

<!-- Applications -->
<g filter="url(#shadow)">
  <rect x="55" y="175" width="415" height="180" rx="28" fill="url(#surface)" stroke="#5DBAFF" stroke-opacity=".38"/>
  <text class="label" x="78" y="204">APPLICATIONS</text>
  <rect x="76" y="218" width="224" height="113" rx="14" fill="#061731" stroke="#4DA3FF" stroke-opacity=".34"/>
  <rect x="76" y="218" width="224" height="19" rx="14" fill="#0C2D5B"/><circle cx="91" cy="228" r="3.5" fill="#F2B84B"/><circle cx="104" cy="228" r="3.5" fill="#4DA3FF"/>
  <rect x="88" y="247" width="43" height="72" rx="7" fill="#0B2348"/><path d="M98 260h23M98 270h17M98 280h21M98 300h18" stroke="#55B6FF" stroke-width="3" stroke-linecap="round" opacity=".58"/>
  <rect x="142" y="247" width="65" height="28" rx="7" fill="#123D79"/><rect x="214" y="247" width="72" height="28" rx="7" fill="#0F315F"/>
  <path d="M150 267l12-8 11 3 10-10 14 4" fill="none" stroke="#F2B84B" stroke-width="2.5" stroke-linecap="round"/>
  <rect x="142" y="284" width="144" height="35" rx="8" fill="#0B2348"/><path d="M152 308l17-10 16 4 22-14 17 8 21-12 28 7" fill="none" stroke="#4DA3FF" stroke-width="2.5"/>
  <g transform="translate(310 220)"><rect width="138" height="111" rx="18" fill="#0A244C" stroke="#5DBAFF" stroke-opacity=".4"/><text class="small" x="12" y="22">MOBILE WORKFLOW</text><rect x="16" y="34" width="34" height="58" rx="8" fill="#071A38" stroke="#72C7FF"/><circle cx="33" cy="82" r="3" fill="#4DA3FF"/><path d="M61 43h54M61 55h36M61 73h45" stroke="#5DBAFF" stroke-width="3" stroke-linecap="round" opacity=".62"/><circle cx="108" cy="88" r="6" fill="#F2B84B"/></g>
  <text class="micro" x="79" y="345">WEB · MOBILE · WORKFLOWS · BUSINESS LOGIC</text>
</g>

<!-- Commerce -->
<g filter="url(#shadow)">
  <rect x="530" y="175" width="415" height="180" rx="28" fill="url(#surface)" stroke="#5DBAFF" stroke-opacity=".38"/>
  <text class="label" x="554" y="204">COMMERCE</text>
  <g transform="translate(565 216)"><rect width="82" height="116" rx="20" fill="#071A38" stroke="#78CBFF" stroke-width="2"/><rect x="10" y="12" width="62" height="72" rx="11" fill="#17468A"/><path d="M21 37h8l5 24h26l8-18H32" fill="none" stroke="url(#gold)" stroke-width="4.5" stroke-linecap="round"/><circle cx="42" cy="71" r="4.5" fill="#FFD27A"/><circle cx="59" cy="71" r="4.5" fill="#FFD27A"/><circle cx="41" cy="100" r="4" fill="#4DA3FF"/></g>
  <g transform="translate(670 218)"><rect width="243" height="112" rx="16" fill="#071A38" stroke="#5DBAFF" stroke-opacity=".42"/><text class="small" x="16" y="22">PAYMENT ORCHESTRATION</text><rect x="16" y="34" width="96" height="30" rx="8" fill="#123D79"/><text class="micro" x="28" y="53">$ 1,284.50</text><rect x="127" y="34" width="94" height="30" rx="8" fill="#163865"/><circle cx="145" cy="49" r="5" fill="#4DA3FF"/><text class="micro" x="157" y="53">APPROVED</text><path d="M18 79h42l16 12h45l18-12h84" fill="none" stroke="#55B6FF" stroke-width="2.5" stroke-dasharray="5 7" class="dash"/><circle cx="18" cy="79" r="4" fill="#F2B84B"/><circle cx="76" cy="91" r="4" fill="#4DA3FF"/><circle cx="139" cy="79" r="4" fill="#4DA3FF"/><circle cx="223" cy="79" r="4" fill="#F2B84B"/></g>
  <text class="micro" x="555" y="346">PAYMENTS · ECOMMERCE · TRANSACTIONS · DEVICES</text>
</g>

<!-- Equal gap above orchestration -->
<path class="flow" d="M500 355V378"/>

<!-- Lotus orchestration -->
<g class="pulse" filter="url(#glow)">
  <path d="M176 402C176 382 193 366 214 366H786C807 366 824 382 824 402V446C824 466 807 482 786 482H214C193 482 176 466 176 446Z" fill="url(#glass)" stroke="url(#blue)" stroke-width="2.6"/>
  <rect x="192" y="381" width="616" height="86" rx="30" fill="#0A244C" fill-opacity=".38" stroke="#4DA3FF" stroke-opacity=".12"/>
  <path d="M222 424H403M597 424H778" stroke="#50B4FF" stroke-width="2" stroke-opacity=".38"/>
  <circle cx="255" cy="424" r="5" fill="#4DA3FF"/><circle cx="292" cy="424" r="5" fill="#4DA3FF"/><circle cx="708" cy="424" r="5" fill="#4DA3FF"/><circle cx="745" cy="424" r="5" fill="#F2B84B"/>
  <circle cx="500" cy="424" r="66" fill="url(#core)" stroke="#5CBBFF" stroke-width="2.2"/>
  <circle cx="500" cy="424" r="52" fill="#071A38" stroke="#4DA3FF" stroke-opacity=".38"/>
  <g transform="translate(461 385) scale(.152344)"><path d="M82 377C145 340 214 340 256 368C298 340 367 340 430 377C386 430 320 454 256 448C192 454 126 430 82 377Z" fill="url(#petalBase)"/><path d="M255 387C205 359 150 324 113 279C77 236 58 187 64 129C123 127 175 145 215 182C251 216 270 269 255 387Z" fill="url(#petalLeft)"/><path d="M257 387C307 359 362 324 399 279C435 236 454 187 448 129C389 127 337 145 297 182C261 216 242 269 257 387Z" fill="url(#petalRight)"/><path d="M256 54C304 111 327 174 322 239C318 294 292 342 256 387C220 342 194 294 190 239C185 174 208 111 256 54Z" fill="url(#petalCenter)"/></g>
  <rect class="sweep" x="190" y="376" width="180" height="96" rx="35" fill="url(#blue)" opacity="0"/>
</g>
<text class="small" x="425" y="503">LOTUS ORCHESTRATION</text>

<!-- Equal gap below orchestration -->
<path class="flow" d="M500 482V514"/>

<!-- Data -->
<g filter="url(#shadow)">
  <rect x="84" y="522" width="390" height="128" rx="26" fill="url(#surface)" stroke="#5DBAFF" stroke-opacity=".32"/>
  <text class="label" x="108" y="552">DATA</text>
  <g transform="translate(107 562)"><ellipse cx="55" cy="13" rx="48" ry="12" fill="#15417F" stroke="#77C9FF"/><path d="M7 13v53c0 8 22 13 48 13s48-5 48-13V13" fill="#092149" stroke="#58B6FF" stroke-opacity=".66"/><path d="M7 32c0 8 22 13 48 13s48-5 48-13M7 50c0 8 22 13 48 13s48-5 48-13" fill="none" stroke="#58B6FF" stroke-opacity=".46"/><circle cx="85" cy="66" r="4" fill="#F2B84B"/></g>
  <g transform="translate(230 562)"><text class="small" x="0" y="12">LIVE PIPELINE</text><path d="M2 30h50l17 13h43l18-13h69" fill="none" stroke="#55B6FF" stroke-width="2.3" stroke-dasharray="5 7" class="dash"/><circle cx="2" cy="30" r="4" fill="#4DA3FF"/><circle cx="69" cy="43" r="4" fill="#F2B84B"/><circle cx="130" cy="30" r="4" fill="#4DA3FF"/><rect x="0" y="58" width="200" height="18" rx="5" fill="#071A38"/><path d="M12 69h40M61 69h23M93 69h61M165 69h22" stroke="#4DA3FF" stroke-width="3" stroke-linecap="round" opacity=".55"/></g>
</g>

<!-- Users -->
<g filter="url(#shadow)">
  <rect x="526" y="522" width="390" height="128" rx="26" fill="url(#surface)" stroke="#5DBAFF" stroke-opacity=".32"/>
  <text class="label" x="550" y="552">USERS</text>
  <g transform="translate(552 562)"><circle cx="35" cy="32" r="27" fill="#123C78" stroke="#71C5FF"/><circle cx="35" cy="24" r="9" fill="#A4DCFF"/><path d="M18 46c7-13 27-13 34 0" fill="none" stroke="#A4DCFF" stroke-width="5" stroke-linecap="round"/><circle cx="86" cy="25" r="20" fill="#0B2A57" stroke="#5DBAFF" stroke-opacity=".6"/><circle cx="86" cy="19" r="7" fill="#78C7FF"/><path d="M73 36c5-10 21-10 26 0" fill="none" stroke="#78C7FF" stroke-width="4"/><circle cx="126" cy="39" r="15" fill="#0B2A57" stroke="#5DBAFF" stroke-opacity=".5"/><circle cx="126" cy="34" r="5" fill="#78C7FF"/></g>
  <g transform="translate(700 562)"><rect width="184" height="67" rx="12" fill="#071A38" stroke="#5DBAFF" stroke-opacity=".42"/><text class="small" x="14" y="19">ACTIVE ENDPOINTS</text><path d="M16 34h61M16 47h98M16 59h43" stroke="#55B6FF" stroke-width="3" stroke-linecap="round" opacity=".56"/><circle cx="148" cy="34" r="6" fill="#4DA3FF" class="blink"/><circle cx="166" cy="34" r="6" fill="#F2B84B"/><rect x="138" y="46" width="36" height="12" rx="6" fill="#123D79"/></g>
</g>

<!-- Secure infrastructure scene -->
<g filter="url(#shadow)">
  <text class="label" x="418" y="680">INFRASTRUCTURE</text>
  <rect x="185" y="693" width="630" height="98" rx="26" fill="url(#surface)" stroke="#64BFFF" stroke-opacity=".5"/>
  <!-- network floor -->
  <path d="M224 770H776M270 748H730M315 724H685" stroke="#4DA3FF" stroke-opacity=".18"/><path d="M300 790l45-42h310l45 42M405 790l35-66M595 790l-35-66" fill="none" stroke="#55B6FF" stroke-opacity=".22"/>
  <!-- rack 1 -->
  <g transform="translate(235 704)"><rect width="92" height="78" rx="8" fill="#061731" stroke="#73C8FF" stroke-opacity=".7"/><rect x="9" y="9" width="74" height="12" rx="3" fill="#0D3265"/><rect x="9" y="27" width="74" height="12" rx="3" fill="#0D3265"/><rect x="9" y="45" width="74" height="12" rx="3" fill="#0D3265"/><rect x="9" y="63" width="74" height="8" rx="3" fill="#0D3265"/><circle cx="18" cy="15" r="3" fill="#4DA3FF"/><circle cx="28" cy="15" r="3" fill="#F2B84B"/><circle cx="18" cy="33" r="3" fill="#4DA3FF"/><circle cx="18" cy="51" r="3" fill="#4DA3FF"/><path d="M39 15h34M39 33h34M39 51h27M39 67h31" stroke="#4DA3FF" stroke-width="2" opacity=".55"/></g>
  <!-- rack 2 -->
  <g transform="translate(338 698)"><rect width="100" height="84" rx="8" fill="#071A38" stroke="#73C8FF" stroke-opacity=".78"/><rect x="10" y="10" width="80" height="13" rx="3" fill="#113B77"/><rect x="10" y="29" width="80" height="13" rx="3" fill="#113B77"/><rect x="10" y="48" width="80" height="13" rx="3" fill="#113B77"/><rect x="10" y="67" width="80" height="9" rx="3" fill="#113B77"/><circle cx="20" cy="16" r="3" fill="#4DA3FF"/><circle cx="30" cy="16" r="3" fill="#4DA3FF"/><circle cx="20" cy="35" r="3" fill="#F2B84B"/><circle cx="20" cy="54" r="3" fill="#4DA3FF"/><path d="M42 16h37M42 35h37M42 54h30M42 71h34" stroke="#4DA3FF" stroke-width="2" opacity=".58"/></g>
  <!-- security shield -->
  <g transform="translate(468 704)"><path d="M38 0l30 11v25c0 24-14 38-30 47C22 74 8 60 8 36V11z" fill="#123D79" stroke="#74CBFF" stroke-width="2"/><path d="M38 17v31M24 33h28" stroke="#A8E3FF" stroke-width="4" stroke-linecap="round"/><circle cx="38" cy="34" r="8" fill="#0A244C" stroke="#F2B84B"/><path d="M34 35l3 3 6-8" fill="none" stroke="#F2B84B" stroke-width="2.5" stroke-linecap="round"/></g>
  <!-- terminal / monitoring -->
  <g transform="translate(565 704)"><rect width="205" height="78" rx="11" fill="#061731" stroke="#5DBAFF" stroke-opacity=".6"/><text class="small" x="14" y="18">SECURE OPERATIONS</text><path d="M16 30h72M16 42h55M16 54h82" stroke="#55B6FF" stroke-width="2.5" stroke-linecap="round" opacity=".6"/><path d="M115 56l13-12 12 5 14-18 17 8 18-17" fill="none" stroke="#4DA3FF" stroke-width="2.5"/><path d="M115 62h76" stroke="#4DA3FF" stroke-opacity=".18"/><circle cx="183" cy="18" r="5" fill="#4DA3FF" class="blink"/><circle cx="166" cy="18" r="5" fill="#F2B84B"/></g>
  <!-- animated network packets -->
  <circle class="packet" cx="327" cy="786" r="4" fill="#4DA3FF"/><circle class="packet" cx="438" cy="786" r="4" fill="#F2B84B" style="animation-delay:1.2s"/>
</g>
</svg>